<?xml version="1.0" encoding="utf-8"?>
<!-- Generator: Adobe Illustrator 27.5.0, SVG Export Plug-In . SVG Version: 6.00 Build 0)  -->
<svg version="1.1" xmlns="http://www.w3.org/2000/svg" xmlns:xlink="http://www.w3.org/1999/xlink" x="0px" y="0px"
	 viewBox="0 0 500 500" style="enable-background:new 0 0 500 500;" xml:space="preserve">
<g id="BACKGROUND">
	<rect style="fill:#FFFFFF;" width="500" height="500"/>
</g>
<g id="OBJECTS">
	<path style="opacity:0.2;fill:#6A8185;" d="M120.684,113.293c0,0,76.9-87.51,166.198-45.038s13.101,81.077,28.968,79.953
		c15.867-1.124,94.602-63.869,127.321,33.65s11.961,151.108-53.366,158.762s27.486,38.3-10.963,65.268
		s-183.258,60.164-217.058,15.381s0.265-100.92,0.265-100.92s-42.259,72.076-78.597,33.287s-36.387-138.113,0.403-153.703
		s63.742-33.9,45.713-32.599C111.538,168.637,95.956,140.724,120.684,113.293z"/>
	<g>
		<path style="fill:#3E2D4A;" d="M217.964,228.814c0,0-28.7-2.036-37.8-33.143s-40.99-57.59-46.124-69.02
			s35.235-14.165,57.883,6.136S232.274,205.478,217.964,228.814z"/>
		<g>
			<path style="fill:#FEFADA;" d="M214.087,226.079c-1.12-1.169-2.261-5.145-3.988-11.164
				c-4.603-16.038-13.171-45.892-34.609-66.397c-14.991-14.338-24.221-20.264-29.324-22.71c-5.537-2.654-7.541-1.9-7.56-1.892
				l-0.196-0.46c0.323-0.141,8.326-3.131,37.425,24.701c21.536,20.599,30.128,50.537,34.744,66.621
				c1.646,5.733,2.834,9.875,3.869,10.956L214.087,226.079z"/>
			<path style="fill:#FEFADA;" d="M170.5,143.665c-0.38,0-0.802-0.33-1.114-0.609c-4.868-4.357-24.451-3.953-24.647-3.946
				l-0.012-0.5c0.814-0.018,19.979-0.415,24.992,4.074c0.517,0.463,0.77,0.512,0.827,0.468c1.044-0.708-2.921-11.53-4.827-16.73
				c-1.144-3.12-1.793-4.909-1.849-5.392l0.497-0.057c0.051,0.448,0.871,2.686,1.821,5.277c3.895,10.629,5.788,16.537,4.639,17.316
				C170.725,143.635,170.614,143.665,170.5,143.665z"/>
			<path style="fill:#FEFADA;" d="M188.817,165.402c-0.332,0-0.724-0.139-1.184-0.418c-6.08-3.683-22.444-1.369-22.609-1.345
				l-0.071-0.495c0.679-0.098,16.708-2.364,22.939,1.412c0.568,0.344,0.976,0.43,1.214,0.257c1.139-0.829-0.256-6.732-1.733-12.982
				c-1.668-7.062-3.56-15.065-3.186-20.466l0.499,0.034c-0.368,5.326,1.514,13.29,3.174,20.317
				c1.883,7.969,2.883,12.525,1.541,13.501C189.231,165.341,189.038,165.402,188.817,165.402z"/>
			<path style="fill:#FEFADA;" d="M202.07,191.309c-0.465,0-0.835-0.547-1.081-0.977c-3.644-6.38-25.17-11.296-25.387-11.345
				l0.11-0.487c0.895,0.202,21.959,5.015,25.711,11.584c0.428,0.75,0.647,0.727,0.671,0.722c0.949-0.224,1.333-7.049,1.704-13.65
				c0.496-8.815,1.112-19.786,3.26-25.796l0.471,0.168c-2.124,5.943-2.738,16.874-3.232,25.657
				c-0.51,9.068-0.834,13.813-2.088,14.109C202.162,191.303,202.116,191.309,202.07,191.309z"/>
			<path style="fill:#FEFADA;" d="M209.255,215.697c-2.39,0-7.264-2.99-12.801-6.387c-5.133-3.148-10.44-6.404-13.997-7.375
				l0.132-0.482c3.625,0.989,8.964,4.264,14.127,7.432c5.664,3.475,11.521,7.065,13.157,6.189c0.277-0.149,0.419-0.443,0.435-0.899
				c0.205-5.799,9.119-26.348,9.498-27.219l0.458,0.199c-0.092,0.213-9.255,21.333-9.456,27.038
				c-0.023,0.641-0.258,1.085-0.699,1.322C209.876,215.638,209.59,215.697,209.255,215.697z"/>
		</g>
	</g>
	<g>
		<path style="fill:#CA9661;" d="M228.416,271.276c0,0,26.478-11.258,24.968-43.634s20.034-67.789,21.172-80.268
			c1.138-12.478-37.927-1.937-52.742,24.625S207.295,253.861,228.416,271.276z"/>
		<g>
			<path style="fill:#FEFADA;" d="M231.193,267.428l-0.454-0.209c0.627-1.358,0.405-5.662,0.096-11.618
				c-0.865-16.711-2.475-47.816,11.192-74.298c18.483-35.814,26.996-35.56,27.36-35.529l-0.036,0.499
				c-0.068,0.008-8.642-0.079-26.879,35.26c-13.605,26.361-12,57.378-11.137,74.042
				C231.658,261.827,231.872,265.958,231.193,267.428z"/>
			<path style="fill:#FEFADA;" d="M245.419,175.353c-0.049,0-0.099-0.006-0.15-0.021c-1.34-0.363-1.472-6.564-1.245-17.881
				c0.055-2.761,0.103-5.145,0.006-5.585l0.488-0.107c0.105,0.475,0.072,2.379,0.006,5.702c-0.111,5.537-0.342,17.059,0.875,17.389
				c0.069,0.014,0.291-0.106,0.629-0.712c3.283-5.875,21.534-11.732,22.309-11.979l0.152,0.477
				c-0.188,0.06-18.838,6.043-22.025,11.747C246.227,174.81,245.868,175.353,245.419,175.353z"/>
			<path style="fill:#FEFADA;" d="M235.026,201.89c-0.094,0-0.187-0.014-0.279-0.042c-1.587-0.487-2.123-5.121-2.934-13.269
				c-0.715-7.185-1.525-15.328-3.605-20.245l0.461-0.194c2.109,4.986,2.923,13.169,3.642,20.39
				c0.636,6.391,1.237,12.427,2.583,12.84c0.282,0.084,0.64-0.129,1.064-0.638c4.665-5.597,20.56-8.667,21.233-8.794l0.094,0.491
				c-0.164,0.031-16.393,3.164-20.943,8.624C235.874,201.613,235.44,201.89,235.026,201.89z"/>
			<path style="fill:#FEFADA;" d="M231.058,230.673c-1.279,0-3.125-4.376-6.507-12.666c-3.323-8.145-7.459-18.282-11.4-23.211
				l0.391-0.313c3.986,4.986,8.137,15.16,11.472,23.335c2.478,6.075,5.041,12.355,6.027,12.355c0.008,0,0.015,0,0.022-0.001
				c0.024-0.002,0.238-0.048,0.4-0.901c1.412-7.433,19.766-18.834,20.547-19.316l0.262,0.426
				c-0.188,0.117-18.947,11.767-20.318,18.984c-0.102,0.534-0.299,1.251-0.842,1.305
				C231.095,230.672,231.076,230.673,231.058,230.673z"/>
			<path style="fill:#FEFADA;" d="M231.736,256.16c-0.074,0-0.146-0.006-0.216-0.018c-0.494-0.08-0.86-0.424-1.09-1.022
				c-2.046-5.329-17.579-22.322-17.735-22.493l0.369-0.338c0.642,0.701,15.753,17.235,17.833,22.651
				c0.164,0.427,0.394,0.658,0.704,0.709c1.818,0.288,6.202-5.003,10.429-10.13c3.853-4.674,7.836-9.507,10.943-11.622l0.281,0.413
				c-3.048,2.075-7.008,6.879-10.838,11.526C237.86,251.362,233.906,256.16,231.736,256.16z"/>
		</g>
	</g>
	<g>
		<path style="fill:#CA9661;" d="M152.581,369.228c0,0-22.997-17.291-50.272,0.219c-27.275,17.51-68.716,16.578-80.09,21.837
			c-11.373,5.259,17.302,33.806,47.713,33.34C100.344,424.157,148.072,396.228,152.581,369.228z"/>
		<g>
			<path style="fill:#FEFADA;" d="M55.57,402.782c-28.795,0-32.013-5.938-32.149-6.222l0.45-0.219
				c0.039,0.075,4.293,7.527,43.978,5.627c29.631-1.413,55.681-18.324,69.676-27.41c5.252-3.409,8.723-5.662,10.335-5.81
				l0.046,0.498c-1.49,0.136-5.105,2.483-10.108,5.731c-14.035,9.111-40.159,26.07-69.925,27.49
				C63.325,402.686,59.24,402.782,55.57,402.782z"/>
			<path style="fill:#FEFADA;" d="M41.384,415.464l-0.338-0.369c0.359-0.328,2.023-1.253,4.934-2.858
				c4.85-2.675,14.941-8.24,14.618-9.46c-0.019-0.068-0.231-0.188-0.932-0.188c-0.025,0-0.051,0.001-0.077,0.001
				c-6.76,0-20.86-12.776-21.459-13.322l0.337-0.369c0.145,0.132,14.555,13.191,21.121,13.191c0.056,0,0.109-0.002,0.167-0.002
				c0.532,0,1.197,0.072,1.327,0.562c0.356,1.342-4.948,4.56-14.859,10.026C43.804,414.008,41.716,415.159,41.384,415.464z"/>
			<path style="fill:#FEFADA;" d="M63.56,420.921l-0.399-0.301c3.262-4.322,9.939-9.122,15.831-13.357
				c5.214-3.748,10.14-7.288,9.824-8.66c-0.066-0.287-0.431-0.489-1.085-0.603c-7.18-1.238-17.792-13.463-18.24-13.982l0.379-0.326
				c0.108,0.126,10.942,12.608,17.946,13.816c0.883,0.152,1.37,0.474,1.487,0.982c0.373,1.617-3.371,4.4-10.019,9.179
				C73.42,411.884,66.775,416.66,63.56,420.921z"/>
			<path style="fill:#FEFADA;" d="M94.004,420.717l-0.466-0.182c2.322-5.946,9.053-14.632,14.462-21.61
				c4.05-5.226,8.238-10.629,7.669-11.42c-0.014-0.02-0.16-0.183-0.981,0.104c-7.146,2.495-26.198-7.688-27.006-8.123l0.237-0.439
				c0.196,0.104,19.669,10.515,26.604,8.09c0.514-0.177,1.233-0.366,1.552,0.076c0.752,1.045-2.116,4.84-7.68,12.019
				C103.007,406.185,96.3,414.838,94.004,420.717z"/>
			<path style="fill:#FEFADA;" d="M126.986,402.181l-0.477-0.15c0.286-0.907,7.038-22.264,10.687-26.775
				c0.287-0.355,0.373-0.671,0.261-0.964c-0.658-1.736-7.435-2.866-13.989-3.959c-5.975-0.997-12.153-2.027-15.538-3.658
				l0.217-0.451c3.321,1.601,9.463,2.625,15.403,3.616c7.305,1.218,13.614,2.271,14.375,4.274c0.177,0.468,0.063,0.958-0.34,1.456
				C133.996,380.007,127.056,401.959,126.986,402.181z"/>
		</g>
	</g>
	<g>
		<path style="fill:#6E6C7B;" d="M296.931,386.855c0,0-24.575-14.963-50.01,5.125s-66.77,23.206-77.575,29.551
			s20.519,31.955,50.74,28.523S295.08,414.167,296.931,386.855z"/>
		<g>
			<path style="fill:#FEFADA;" d="M189.291,430.506c-15.659,0-18.104-3.625-18.235-3.841l0.428-0.26l-0.214,0.13l0.212-0.132
				c0.046,0.071,5.008,7.063,44.317,1.308c29.351-4.299,53.626-23.672,66.668-34.08c4.895-3.906,8.128-6.487,9.719-6.791l0.094,0.49
				c-1.47,0.281-4.838,2.97-9.501,6.691c-13.078,10.438-37.422,29.865-66.907,34.184
				C204.308,429.899,195.693,430.506,189.291,430.506z"/>
			<path style="fill:#FEFADA;" d="M190.779,443.725l-0.372-0.334c0.325-0.362,1.891-1.444,4.63-3.325
				c4.565-3.136,14.066-9.661,13.625-10.843c-0.025-0.067-0.254-0.174-0.946-0.098c-6.677,0.761-22.081-10.667-22.733-11.154
				l0.299-0.4c0.158,0.118,15.897,11.768,22.378,11.059c0.54-0.062,1.282-0.084,1.47,0.419c0.485,1.301-4.479,5.021-13.811,11.43
				C193.044,442.04,191.08,443.39,190.779,443.725z"/>
			<path style="fill:#FEFADA;" d="M213.381,446.992l-0.427-0.262c2.824-4.619,9.001-10.048,14.452-14.838
				c4.823-4.24,9.379-8.244,8.931-9.579c-0.094-0.278-0.477-0.444-1.138-0.493c-7.267-0.531-19.021-11.662-19.518-12.136
				l0.345-0.361c0.121,0.114,12.121,11.48,19.209,11.999c0.895,0.065,1.41,0.337,1.576,0.832c0.528,1.573-2.925,4.708-9.075,10.113
				C222.312,437.034,216.166,442.437,213.381,446.992z"/>
			<path style="fill:#FEFADA;" d="M243.661,443.815l-0.481-0.135c1.73-6.145,7.582-15.445,12.283-22.919
				c3.521-5.596,7.161-11.382,6.518-12.113c-0.017-0.019-0.177-0.166-0.966,0.199c-6.864,3.187-26.824-5.095-27.67-5.448
				l0.193-0.461c0.205,0.085,20.601,8.543,27.266,5.456c0.494-0.229,1.19-0.485,1.552-0.076c0.851,0.967-1.633,5.022-6.469,12.71
				C251.202,428.475,245.372,437.741,243.661,443.815z"/>
			<path style="fill:#FEFADA;" d="M274.677,422.148l-0.49-0.104c0.196-0.931,4.831-22.844,8.022-27.689
				c0.252-0.382,0.306-0.704,0.166-0.985c-0.825-1.663-7.681-2.127-14.311-2.575c-6.043-0.408-12.291-0.831-15.819-2.124
				l0.172-0.469c3.461,1.268,9.673,1.688,15.681,2.094c7.391,0.5,13.772,0.932,14.726,2.853c0.223,0.448,0.156,0.946-0.196,1.482
				C279.487,399.397,274.724,421.921,274.677,422.148z"/>
		</g>
	</g>
	<g>
		<path style="fill:#3E2D4A;" d="M354.165,386.855c0,0,24.575-14.963,50.01,5.125s66.77,23.206,77.575,29.551
			s-20.519,31.955-50.74,28.523S356.016,414.167,354.165,386.855z"/>
		<g>
			<path style="fill:#FEFADA;" d="M461.806,430.506c-6.403,0-15.014-0.606-26.581-2.301c-29.486-4.318-53.83-23.747-66.909-34.185
				c-4.662-3.721-8.03-6.409-9.499-6.69l0.094-0.49c1.591,0.304,4.823,2.884,9.718,6.79c13.041,10.408,37.316,29.782,66.669,34.081
				c39.311,5.756,44.272-1.236,44.317-1.308l0.426,0.262C479.909,426.881,477.461,430.506,461.806,430.506z"/>
			<path style="fill:#FEFADA;" d="M460.318,443.725c-0.302-0.335-2.265-1.684-4.538-3.245c-9.334-6.41-14.3-10.131-13.814-11.432
				c0.188-0.503,0.926-0.481,1.471-0.419c6.494,0.71,22.219-10.94,22.377-11.059l0.299,0.4c-0.651,0.487-16.061,11.92-22.732,11.154
				c-0.683-0.076-0.92,0.029-0.945,0.098c-0.44,1.182,9.062,7.709,13.629,10.845c2.736,1.88,4.301,2.961,4.626,3.323
				L460.318,443.725z"/>
			<path style="fill:#FEFADA;" d="M437.716,446.992c-2.785-4.555-8.932-9.958-14.355-14.725c-6.15-5.405-9.604-8.54-9.075-10.113
				c0.166-0.495,0.682-0.767,1.575-0.832c7.09-0.519,19.089-11.885,19.209-11.999l0.346,0.361
				c-0.497,0.474-12.251,11.604-19.518,12.136c-0.662,0.049-1.045,0.215-1.139,0.493c-0.448,1.335,4.107,5.34,8.932,9.579
				c5.45,4.79,11.628,10.219,14.451,14.838L437.716,446.992z"/>
			<path style="fill:#FEFADA;" d="M407.436,443.815c-1.711-6.074-7.541-15.342-12.227-22.788
				c-4.836-7.687-7.319-11.743-6.469-12.709c0.362-0.409,1.058-0.153,1.552,0.076c6.668,3.092,27.062-5.371,27.267-5.456
				l0.193,0.461c-0.847,0.354-20.804,8.634-27.671,5.448c-0.79-0.366-0.949-0.219-0.966-0.199
				c-0.644,0.731,2.997,6.518,6.518,12.113c4.702,7.474,10.554,16.774,12.283,22.919L407.436,443.815z"/>
			<path style="fill:#FEFADA;" d="M376.42,422.148c-0.047-0.228-4.812-22.751-7.95-27.518c-0.353-0.536-0.419-1.034-0.196-1.482
				c0.953-1.921,7.335-2.353,14.725-2.853c6.008-0.406,12.22-0.826,15.681-2.094l0.172,0.469c-3.528,1.293-9.776,1.716-15.818,2.124
				c-6.63,0.448-13.485,0.912-14.311,2.575c-0.14,0.281-0.086,0.604,0.166,0.985c3.19,4.846,7.826,26.759,8.022,27.689
				L376.42,422.148z"/>
		</g>
	</g>
	<g>
		<path style="fill:#6A8185;" d="M337.584,201.837c0,0,28.223,5.593,45.192-22.021s54.707-44.766,62.669-54.441
			s-30.262-22.943-57.456-9.321C360.795,129.676,329.923,175.556,337.584,201.837z"/>
		<g>
			<path style="fill:#FEFADA;" d="M342.045,200.219l-0.258-0.429c1.283-0.77,3.521-4.453,6.617-9.551
				c8.688-14.3,24.86-40.919,51.059-55.121c35.405-19.191,42.333-14.197,42.609-13.976l-0.311,0.393
				c-0.018-0.013-1.749-1.269-7.791-0.166c-5.567,1.017-16.032,4.303-34.27,14.188c-26.08,14.137-42.206,40.681-50.869,54.941
				C345.581,195.851,343.434,199.386,342.045,200.219z"/>
			<path style="fill:#FEFADA;" d="M431.845,134.578c-0.188-0.057-18.97-5.604-24.817-2.683c-0.486,0.244-1.174,0.521-1.523,0.112
				c-0.903-1.055,2.478-6.255,9.033-15.483c1.599-2.25,2.979-4.194,3.146-4.613l0.465,0.186c-0.181,0.452-1.279,2.007-3.204,4.717
				c-3.208,4.515-9.882,13.91-9.062,14.868c0.046,0.053,0.296,0.078,0.922-0.234c6.014-3.01,24.402,2.417,25.183,2.65
				L431.845,134.578z"/>
			<path style="fill:#FEFADA;" d="M405.816,152.901c-0.152-0.067-15.329-6.608-22.166-4.656c-0.864,0.248-1.44,0.167-1.766-0.24
				c-1.038-1.295,1.126-5.427,5.041-12.619c3.452-6.341,7.364-13.529,8.411-18.764l0.49,0.098
				c-1.062,5.309-4.993,12.532-8.463,18.905c-3.069,5.641-5.97,10.968-5.09,12.067c0.184,0.23,0.601,0.254,1.239,0.072
				c7.004-2.001,21.872,4.404,22.502,4.678L405.816,152.901z"/>
			<path style="fill:#FEFADA;" d="M362.954,169.861c-0.1,0-0.197-0.022-0.292-0.074c-1.132-0.615-0.195-5.279,1.7-14.161
				c1.836-8.603,4.121-19.31,3.638-25.602l0.498-0.038c0.49,6.364-1.804,17.11-3.646,25.744c-1.38,6.466-2.807,13.152-1.951,13.618
				c0.023,0.012,0.222,0.098,0.839-0.52c5.349-5.35,26.938-4.45,27.854-4.406l-0.021,0.499c-0.226-0.009-22.284-0.935-27.479,4.26
				C363.784,169.49,363.358,169.861,362.954,169.861z"/>
			<path style="fill:#FEFADA;" d="M350.697,191.614c-0.938,0-1.635-0.164-2.033-0.541c-0.362-0.344-0.473-0.835-0.325-1.459
				c1.308-5.557-1.971-28.344-2.004-28.574l0.494-0.071c0.137,0.941,3.326,23.112,1.996,28.76c-0.104,0.445-0.045,0.766,0.184,0.982
				c1.346,1.275,7.942-0.646,14.322-2.506c5.814-1.696,11.827-3.45,15.585-3.45v0.5c-3.687,0-9.664,1.744-15.445,3.43
				C358.179,190.228,353.424,191.614,350.697,191.614z"/>
		</g>
	</g>
	<g>
		<path style="fill:#6A8185;" d="M121.894,315.936c0,0-28.768,0.443-40.513-29.766s-45.796-53.847-51.895-64.793
			c-6.099-10.946,33.885-17.146,58.196,1.13S134.141,291.454,121.894,315.936z"/>
		<g>
			<path style="fill:#FEFADA;" d="M117.795,313.544c-1.216-1.068-2.695-4.931-4.935-10.777
				c-5.967-15.583-17.073-44.589-40.197-63.172c-16.169-12.995-25.875-18.104-31.17-20.102c-5.746-2.168-7.675-1.243-7.694-1.234
				l-0.235-0.441c0.313-0.168,8.021-3.841,39.413,21.387c23.229,18.668,34.367,47.756,40.351,63.383
				c2.133,5.569,3.674,9.594,4.797,10.581L117.795,313.544z"/>
			<path style="fill:#FEFADA;" d="M67.216,235.191c-0.366,0-0.785-0.275-1.103-0.514c-5.228-3.922-24.7-1.831-24.896-1.809
				l-0.055-0.497c0.809-0.089,19.869-2.134,25.25,1.907c0.556,0.417,0.81,0.443,0.864,0.395c0.979-0.795-3.903-11.233-6.249-16.25
				c-1.408-3.011-2.21-4.738-2.307-5.215l0.49-0.1c0.089,0.442,1.1,2.602,2.27,5.103c4.794,10.253,7.189,15.975,6.111,16.85
				C67.479,235.153,67.352,235.191,67.216,235.191z"/>
			<path style="fill:#FEFADA;" d="M63.54,255.561l-0.114-0.486c0.668-0.157,16.442-3.792,22.976-0.569
				c0.595,0.293,1.007,0.344,1.231,0.152c1.063-0.924-0.835-6.685-2.845-12.784c-2.271-6.892-4.844-14.703-4.937-20.116l0.5-0.009
				c0.091,5.337,2.652,13.11,4.912,19.968c2.562,7.777,3.95,12.23,2.697,13.318c-0.395,0.342-0.977,0.316-1.781-0.08
				C79.808,251.809,63.702,255.523,63.54,255.561z"/>
			<path style="fill:#FEFADA;" d="M102.778,279.94c-0.443,0-0.838-0.491-1.11-0.883c-4.18-6.043-26.049-9.088-26.27-9.117
				l0.067-0.496c0.909,0.124,22.309,3.106,26.613,9.328c0.494,0.715,0.709,0.667,0.731,0.662c0.926-0.305,0.721-7.138,0.522-13.747
				c-0.265-8.824-0.595-19.808,1.027-25.981l0.483,0.127c-1.604,6.104-1.275,17.046-1.011,25.839
				c0.272,9.078,0.358,13.834-0.866,14.236C102.903,279.931,102.84,279.94,102.778,279.94z"/>
			<path style="fill:#FEFADA;" d="M111.806,303.628c-2.487,0-7.433-2.476-13.022-5.272c-5.384-2.695-10.953-5.481-14.579-6.143
				l0.09-0.492c3.697,0.674,9.297,3.477,14.713,6.188c5.942,2.974,12.086,6.052,13.641,5.033c0.263-0.172,0.379-0.478,0.356-0.934
				c-0.295-5.794,6.816-27.035,7.119-27.937l0.474,0.16c-0.074,0.22-7.384,22.051-7.094,27.751c0.033,0.641-0.163,1.104-0.582,1.378
				C112.642,303.543,112.266,303.628,111.806,303.628z"/>
		</g>
	</g>
	<g>
		<path style="fill:#3E2D4A;" d="M361.584,360.837c0,0,28.223,5.593,45.192-22.021c16.969-27.614,54.707-44.766,62.669-54.441
			s-30.262-22.943-57.456-9.321C384.795,288.676,353.923,334.556,361.584,360.837z"/>
		<g>
			<path style="fill:#FEFADA;" d="M366.045,359.22l-0.258-0.43c1.283-0.77,3.521-4.452,6.617-9.55
				c8.688-14.302,24.86-40.921,51.059-55.122c35.407-19.193,42.331-14.198,42.609-13.976l-0.311,0.393
				c-0.017-0.014-1.752-1.269-7.791-0.166c-5.567,1.017-16.032,4.303-34.27,14.188c-26.08,14.137-42.206,40.682-50.869,54.941
				C369.581,354.851,367.434,358.386,366.045,359.22z"/>
			<path style="fill:#FEFADA;" d="M455.845,293.577c-0.188-0.055-18.97-5.604-24.817-2.683c-0.485,0.243-1.174,0.521-1.523,0.112
				c-0.904-1.055,2.478-6.256,9.035-15.485c1.598-2.249,2.978-4.191,3.145-4.609l0.465,0.186c-0.181,0.451-1.278,2.006-3.202,4.714
				c-3.208,4.516-9.884,13.912-9.063,14.87c0.047,0.053,0.296,0.078,0.922-0.234c6.019-3.013,24.402,2.418,25.183,2.651
				L455.845,293.577z"/>
			<path style="fill:#FEFADA;" d="M429.816,311.9c-0.152-0.066-15.326-6.603-22.166-4.655c-0.862,0.248-1.44,0.167-1.766-0.239
				c-1.038-1.296,1.126-5.428,5.041-12.619c3.452-6.342,7.364-13.53,8.411-18.765l0.49,0.098c-1.062,5.31-4.993,12.533-8.463,18.906
				c-3.07,5.641-5.97,10.968-5.09,12.067c0.184,0.229,0.602,0.252,1.239,0.071c7.004-2.004,21.872,4.403,22.502,4.677L429.816,311.9
				z"/>
			<path style="fill:#FEFADA;" d="M386.954,328.861c-0.1,0-0.197-0.022-0.292-0.074c-1.132-0.615-0.195-5.279,1.7-14.161
				c1.836-8.604,4.121-19.31,3.638-25.602l0.498-0.039c0.49,6.364-1.804,17.11-3.646,25.744c-1.38,6.467-2.807,13.152-1.95,13.618
				c0.021,0.013,0.226,0.093,0.838-0.52c5.349-5.35,26.939-4.449,27.854-4.407l-0.021,0.5c-0.226-0.012-22.284-0.935-27.479,4.261
				C387.784,328.49,387.358,328.861,386.954,328.861z"/>
			<path style="fill:#FEFADA;" d="M374.697,350.614c-0.938,0-1.635-0.164-2.033-0.541c-0.362-0.345-0.473-0.836-0.325-1.46
				c1.308-5.556-1.971-28.343-2.004-28.572l0.494-0.072c0.137,0.941,3.326,23.112,1.996,28.76c-0.104,0.444-0.045,0.766,0.184,0.981
				c1.348,1.277,7.944-0.646,14.323-2.506c5.814-1.695,11.826-3.449,15.584-3.449v0.5c-3.687,0-9.664,1.743-15.444,3.429
				C382.18,349.228,377.425,350.614,374.697,350.614z"/>
		</g>
	</g>
	<g>
		<path style="fill:#6A8185;" d="M164.85,251.834c0,0-4.006-47.46,25.667-52.354c25.19-4.155,45.268,7.088,55.146,32.515
			C255.541,257.422,171.4,259.513,164.85,251.834z"/>
		<path style="fill:#E7BD9F;" d="M103.164,173.556c0,0,9.163,17.964,17.585,16.633s11.92-12.934,25.532-8.145
			c13.612,4.788,26.054,33.366,39.155,37.421c13.101,4.055-8.527,34.136-8.527,34.136s-105.308,6.629-109.594-1.097
			s28.445-46.688,31.637-49.102c7.365-5.571-3.187-15.157-3.187-15.157L103.164,173.556z"/>
		<path style="fill:#E7BD9F;" d="M103.143,161.253c0,0,11.324,22.844-0.846,27.429c-8.371,3.154-17.636-9.825-17.717-17.347
			C84.499,163.813,96.282,157.688,103.143,161.253z"/>
		
			<ellipse transform="matrix(0.9356 -0.3531 0.3531 0.9356 -56.4389 44.3784)" style="fill:#34263B;" cx="93.425" cy="176.892" rx="0.792" ry="1.022"/>
		
			<ellipse transform="matrix(0.9356 -0.3531 0.3531 0.9356 -54.9086 46.9241)" style="fill:#34263B;" cx="101.168" cy="173.97" rx="0.792" ry="1.022"/>
		<path style="fill:#E7BD9F;" d="M106.421,173.072c0,0-0.14-4.571,2.316-3.477c2.456,1.094,2.287,6.709,0.555,7.332
			C107.562,177.549,106.228,175.031,106.421,173.072z"/>
		<path style="fill:#A0444E;" d="M99.143,170.204c0,0,1.54-1.223,3.377,0.442C103.591,171.618,97.38,171.469,99.143,170.204z"/>
		<path style="fill:#A0444E;" d="M92.53,172.519c0,0-1.954-0.217-2.626,2.169C89.513,176.08,94.695,172.653,92.53,172.519z"/>
		<path style="fill:#E7BD9F;" d="M88.938,179.851c0,0-2.897-3.539-4.031-1.1s2.683,6.561,4.397,5.893
			C91.019,183.977,90.371,181.202,88.938,179.851z"/>
		<path style="fill:#A0444E;" d="M85.145,165.318c0,0,4.315,9.014,1.978,13.658C87.123,178.976,73.668,175.341,85.145,165.318z"/>
		<path style="fill:#C87D79;" d="M99.338,180.893c-0.662,0-2.027-0.519-2.717-1.423l0.397-0.304
			c0.604,0.791,1.784,1.188,2.241,1.228c-0.144-0.675-1.121-3.06-2.08-5.197l0.456-0.205c1.545,3.445,2.256,5.364,2.112,5.705
			l-0.167,0.162C99.518,180.882,99.436,180.893,99.338,180.893z"/>
		<path style="fill:#C87D79;" d="M99.31,183.826c-1.761,0-3.599-1.349-3.694-1.419l0.298-0.401c0.027,0.02,2.64,1.935,4.375,1.117
			c0.964-0.456,1.503-1.695,1.601-3.682l0.499,0.024c-0.108,2.187-0.743,3.57-1.888,4.11
			C100.124,183.753,99.719,183.826,99.31,183.826z"/>
		<path style="fill:#C87D79;" d="M88.84,183.107c-1.147-2.812-2.452-2.69-2.464-2.694l-0.071-0.495c0.065-0.012,1.685-0.216,2.999,3
			L88.84,183.107z"/>
		<path style="fill:#C87D79;" d="M108.308,175.746c-1.14-3.284,0.211-4.196,0.27-4.233l0.273,0.418
			c-0.011,0.007-1.067,0.78-0.07,3.65L108.308,175.746z"/>
		<path style="fill:#E7BD9F;" d="M86.342,198.347c0,0-0.244-4.134-3.582-7.024c-3.338-2.89-6.944-7.21-4.885-6.229
			s4.662,2.608,4.662,2.608s-3.734-3.615-3.149-4.113c0.585-0.498,5.651,1.924,5.651,1.924s-4.486-2.565-2.686-3.419
			c1.799-0.855,13.904,9.61,11.897,13.354C91.792,200.031,91.909,200.261,86.342,198.347z"/>
		<path style="fill:#6A8185;" d="M169.92,249.722c0,0,3.895-26.825,11.381-30.257c7.486-3.431,80.706,19.615,90.064,20.55
			c9.358,0.935,15.479,9.403,14.795,11.034s-12.133,2.21-16.896,3.146C264.501,255.131,169.301,267.502,169.92,249.722z"/>
		<path style="fill:#6A8185;" d="M176.838,220.5c0,0-3.698-11.302,2.543-16.674c22.039-18.972,82.028,21.863,92.397,31.377
			c6.93,6.358,21.628,13.116,20.655,14.594c-0.973,1.478-15.041-6.187-19.895-6.142C267.685,243.698,172.961,237.863,176.838,220.5z
			"/>
		<path style="fill:#C87D79;" d="M84.164,192.83c0,0,9.105-0.69,10.453-0.064c1.349,0.626,2.883,58.159-3.145,61.429
			s-21.329,3.915-26.601,0.266C59.599,250.812,80.182,190.604,84.164,192.83z"/>
		<path style="fill:#C87D79;" d="M100.914,201.176c0,0,17.686,12.879,19.835-10.987c0,0,13.091-11.139,23.046-11.214
			c15.984-0.12,20.481,23.352,35.586,24.85c6.159,0.611-2.052,52.512-2.052,52.512s-93.232,2.026-98,0.667
			c-4.768-1.359-1.83-35.04,1.369-39.651C83.897,212.743,98.144,200.27,100.914,201.176z"/>
		<path style="fill:#C87D79;" d="M95.765,188.244c0,0,5.427,6.931,9.519,6.308c4.092-0.624,4.48-10.977,4.48-10.977l-1.83-2.359
			C107.934,181.216,107.934,193.231,95.765,188.244z"/>
		<path style="fill:#A0444E;" d="M82.034,162.485c0,0,1.719-4.611,8.297-7.371c6.578-2.759,15.565-7.009,16.071-5.009
			s-1.568,6.54-1.568,6.54s5.005-3.656,4.575-0.915s-2.003,8.966-11.796,11.875S77.636,170.334,82.034,162.485z"/>
		<path style="fill:#A0444E;" d="M100.343,160.079c0,0,3.523,11.97,6.477,11.199c0,0,1.451-6.075-0.418-9.423
			S100.343,160.079,100.343,160.079z"/>
		<path style="fill:#A34D5B;" d="M90.824,250.009l-0.265-0.425c5.288-3.292,4.856-43.842,4.851-44.251l0.5-0.006
			C95.931,207.009,96.349,246.569,90.824,250.009z"/>
		<path style="fill:#A34D5B;" d="M111.962,206.868c-6.511,0-13.053-3.209-13.121-3.243l0.223-0.448
			c0.068,0.034,6.987,3.424,13.586,3.178c6.197-0.229,9.148-10.881,9.762-14.966l0.494,0.074c-0.254,1.688-1.101,5.428-2.666,8.732
			c-2.04,4.308-4.587,6.549-7.572,6.66C112.433,206.864,112.197,206.868,111.962,206.868z"/>
		<path style="fill:#FEFADA;" d="M114.755,216.398c0,0,0.468-13.103,14.846-20.489c8.383-4.306,10.067,4.542,10.57,5.843
			s-21.643,17.905-24.831,17.573c-3.188-0.333-32.324,2.172-32.94,1.842c-0.615-0.329-2.683-5.195,0.448-7.544
			C85.979,211.273,108.874,208.516,114.755,216.398z"/>
		<path style="fill:#6A8185;" d="M90.402,252.77c0,0-12.549-33.887-9.377-35.13c4.313-1.69,29.194-1.58,33.73-1.242
			c0,0,18.198-20.337,23.9-19.064c5.703,1.273,17.925,38.86,15.583,39.022s-16.984,11.868-28.744,16.995
			C125.494,253.351,93.621,254.199,90.402,252.77z"/>
		<path style="fill:#E7BD9F;" d="M145.253,238.453c0,0-6.605-3.657-11.014-3.87c-4.41-0.213-10.002,0.423-7.834,1.135
			s5.174,1.331,5.174,1.331s-5.197,0.037-5.118,0.802c0.079,0.764,5.417,2.509,5.417,2.509s-5.016-1.241-4.304,0.62
			c0.712,1.861,10.016,2.358,13.626,6.102C144.809,250.825,150.602,240.911,145.253,238.453z"/>
		<path style="fill:#A34D5B;" d="M141.71,201.713c-6.902-7.777-1.825-18.379-1.773-18.485l0.449,0.22
			c-0.051,0.104-4.979,10.41,1.698,17.933L141.71,201.713z"/>
		<path style="fill:#C87D79;" d="M136.671,230.606c0,0-3.988,12.87,0,17.31c3.988,4.44,37.514-6.81,41.066-16.712
			c3.552-9.902-1.82-18.679-7.82-18.629S154.409,225.438,136.671,230.606z"/>
		<path style="fill:#A34D5B;" d="M147.23,250.715c-1.911,0-3.836-0.211-5.757-0.675l0.117-0.486
			c11.022,2.664,22.312-3.156,29.202-9.491c4.835-4.446,7.667-9.216,7.213-12.151c-1.137-7.358-10.967-26.765-11.066-26.96
			l0.445-0.227c0.407,0.8,9.966,19.673,11.115,27.11c0.479,3.095-2.414,8.039-7.369,12.595
			C165.342,245.753,156.479,250.715,147.23,250.715z"/>
		<path style="fill:#A34D5B;" d="M151.749,223.598l-0.359-0.348c0.929-0.961,9.745-7.999,13.202-9.31l0.177,0.468
			C161.366,215.698,152.667,222.648,151.749,223.598z"/>
		<path style="fill:#FEFADA;" d="M86.387,215.445l-0.091-0.491c0.756-0.14,18.593-3.382,25.776,0.02l-0.214,0.452
			C104.817,212.092,86.57,215.41,86.387,215.445z"/>
		<path style="fill:#FEFADA;" d="M121.409,217.575c0,0,17.859-10.469,18.77-12.219c0.32-0.615,3.616,9.844,3.616,9.844
			s-16.86,9.383-17.873,9.52S121.909,219.545,121.409,217.575z"/>
		<path style="fill:#A34D5B;" d="M143.572,248.028c-3.357-6.677-2.334-18.613-2.289-19.118l0.498,0.045
			c-0.011,0.122-1.055,12.299,2.237,18.848L143.572,248.028z"/>
		<path style="fill:#A34D5B;" d="M95.118,200.708c-3.57-1.374-13.843-0.983-13.948-0.979l-0.02-0.5
			c0.425-0.017,10.482-0.398,14.147,1.012L95.118,200.708z"/>
		<path style="fill:#C87D79;" d="M82.756,187.822l-0.439-0.24c0.028-0.051,0.704-1.264,2.603-2.29l0.237,0.44
			C83.399,186.682,82.763,187.811,82.756,187.822z"/>
		<path style="fill:#515562;" d="M231.08,209.74c-10.182-4.86-27.688-7.397-40.08-2.525l-0.183-0.465
			c12.521-4.923,30.201-2.366,40.478,2.54L231.08,209.74z"/>
		<path style="fill:#44324E;" d="M269.053,232.897c0,0-2.592,12.324,0.394,13.28c2.986,0.956,17.592-3.14,21.6-1.102
			c4.008,2.038,6.862,5.557,6.435,0.547s-5.629-9.63-10.778-11.07C281.555,233.113,269.053,232.897,269.053,232.897z"/>
		<path style="fill:#44324E;" d="M269.077,245.314c0,0-1.082,7.331,1.904,8.287c2.986,0.956,13.857-2.038,17.865,0
			c4.008,2.038,11.168,5.731,10.741,0.721s-5.629-9.63-10.778-11.07S269.077,245.314,269.077,245.314z"/>
		<path style="fill:#6A8185;" d="M185.909,207.966c0,0-12.247,34.372-11.581,48.372c0.258,5.42,21.849,3.567,28.973,3.212
			S188.552,213.757,185.909,207.966z"/>
		<path style="fill:#515562;" d="M179.512,233.09c-1.5-1.241-0.232-6.808,0.887-11.72c0.454-1.993,0.883-3.875,1.012-5.042
			c0.431-3.901,4.149-8.337,4.308-8.524l0.382,0.323c-0.038,0.044-3.779,4.507-4.192,8.255c-0.132,1.195-0.544,3.003-1.021,5.098
			c-0.979,4.296-2.319,10.179-1.056,11.223L179.512,233.09z"/>
		<path style="fill:#863A42;" d="M84.783,167.49l-0.247-0.435c0.254-0.145,6.254-3.533,8.957-3.533c5.775,0,9.085-2.034,9.838-6.046
			l0.491,0.092c-0.803,4.283-4.278,6.454-10.329,6.454C90.92,164.022,84.844,167.455,84.783,167.49z"/>
		<path style="fill:#863A42;" d="M83.208,165.733l-0.431-0.254c0.135-0.229,3.353-5.602,7.734-6.781
			c1.753-0.473,3.148-0.332,4.271-0.218c1.732,0.173,2.777,0.28,3.909-1.747l0.437,0.244c-1.291,2.313-2.662,2.174-4.396,2
			c-1.138-0.115-2.427-0.245-4.09,0.203C86.458,160.307,83.24,165.679,83.208,165.733z"/>
		<path style="fill:#863A42;" d="M84.92,176.93c-0.069-0.222-1.686-5.448-0.82-7.265l0.451,0.215
			c-0.782,1.642,0.83,6.849,0.846,6.901L84.92,176.93z"/>
		<path style="fill:#863A42;" d="M105.914,169.154c-0.555-2.777-1.817-3.845-1.83-3.855l0.316-0.387
			c0.057,0.046,1.41,1.174,2.004,4.145L105.914,169.154z"/>
		<path style="fill:#FEFADA;" d="M277.964,245.013c-0.188-0.659-1.6-3.155-2.319-4.382l0.432-0.253
			c0.086,0.147,2.115,3.614,2.368,4.498L277.964,245.013z"/>
		<path style="fill:#FEFADA;" d="M282.397,245.227l-0.494-0.071c0.231-1.617-1.673-4.736-1.692-4.767l0.426-0.262
			C280.72,240.26,282.655,243.431,282.397,245.227z"/>
		<path style="fill:#FEFADA;" d="M279.197,254.016c-0.188-0.658-1.6-3.154-2.319-4.382l0.432-0.253
			c0.086,0.147,2.115,3.614,2.368,4.498L279.197,254.016z"/>
		<path style="fill:#FEFADA;" d="M283.631,254.229l-0.494-0.07c0.231-1.617-1.673-4.736-1.692-4.768l0.426-0.262
			C281.953,249.264,283.889,252.435,283.631,254.229z"/>
		<path style="fill:#515562;" d="M269.071,245.564c-0.451-0.01-45.42-1.049-65.808-4.221c-17.561-2.732-21.613-6.465-21.777-6.623
			l0.346-0.361c0.04,0.038,4.164,3.792,21.508,6.49c20.355,3.167,65.291,4.205,65.743,4.215L269.071,245.564z"/>
		<path style="fill:#D3D0B1;" d="M114.158,216.489c-9.419-3.522-29.267-1.177-29.466-1.153l-0.06-0.496
			c0.201-0.024,20.171-2.382,29.701,1.18L114.158,216.489z"/>
		<path style="fill:#D3D0B1;" d="M116.896,212.675l-0.469-0.174c3.245-8.737,14.749-15.07,14.865-15.133l0.239,0.439
			C131.417,197.87,120.076,204.115,116.896,212.675z"/>
		<path style="fill:#515562;" d="M125.483,253.601c-0.291,0-0.694-0.303-6.891-17.667c-3.089-8.656-6.135-17.426-6.166-17.513
			l0.473-0.164c4.718,13.587,12.004,34.094,12.736,34.897l-0.143,0.13l0.006,0.317C125.493,253.601,125.488,253.601,125.483,253.601
			z"/>
		<path style="fill:#515562;" d="M130.676,251.921c-1.482-4.2-13.131-36.175-13.249-36.498l0.47-0.171
			c0.118,0.322,11.768,32.3,13.251,36.502L130.676,251.921z"/>
	</g>
	<g>
		<path style="fill:#68818D;" d="M58.941,317.499c0,0,171.595,1.676,178.81,0s24.282-2.654,26.341,0.767
			c2.06,3.421,9.215,59.025-1.091,62.378c-10.306,3.353-207.151,1.118-211.274,1.118s-1.546-56.998,0.515-59.792
			C54.304,319.175,52.243,318.616,58.941,317.499z"/>
		<path style="fill:#493558;" d="M103.658,333.033c0,0-0.41,26.798,2.461,30.752c2.871,3.954,123.461,3.514,127.563,2.636
			c4.102-0.879,1.641-34.266,1.641-34.266S103.247,328.64,103.658,333.033z"/>
		<path style="fill:#493558;" d="M66.162,317.369l-1,65.47c0,0,8.5,0.516,10,0.516s1-67.016,1-67.016L66.162,317.369z"/>
		<path style="fill:#493558;" d="M84.662,317.338l-1,63.5c0,0,8.5,0.5,10,0.5s1-65,1-65L84.662,317.338z"/>
	</g>
	<g>
		<path style="fill:#493558;" d="M58.941,255.453c0,0,171.415,0.068,178.81,0c12.411-0.115,25.351,1.567,27.411,4.885
			c2.06,3.318,8.145,53.109-2.161,56.361c-10.306,3.252-207.151,1.084-211.274,1.084s-1.546-55.284,0.515-57.994
			C54.304,257.079,52.243,256.537,58.941,255.453z"/>
		<path style="fill:#FEFADA;" d="M50.662,266.838c0,0,182,0.5,184,4s4.5,35.5-4.5,38.5s-177,4-181.5,1
			S44.162,267.838,50.662,266.838z"/>
		<path style="fill:#D3D0B1;" d="M172.799,278.114c-10.383,0-20.383-0.359-28.731-0.659c-7.105-0.255-12.718-0.455-16.4-0.367
			c-20.267,0.494-76.438,0.995-77.003,1l-0.005-0.5c0.565-0.005,56.733-0.506,76.997-1c3.695-0.09,9.316,0.111,16.43,0.367
			c10.298,0.37,23.113,0.832,36.053,0.595c27.272-0.498,54.018-0.962,54.018-0.962l0.009,0.5c0,0-26.746,0.464-54.018,0.962
			C177.689,278.095,175.233,278.114,172.799,278.114z"/>
		<path style="fill:#D3D0B1;" d="M116.341,288.429c-24.937,0-67.611-0.83-68.184-0.841l0.01-0.5
			c0.765,0.016,76.58,1.488,84.966,0.502c4.074-0.479,25.658-1.284,48.508-2.137c24.278-0.906,49.382-1.843,51.972-2.36l0.098,0.49
			c-2.629,0.525-27.753,1.463-52.051,2.369c-22.84,0.853-44.414,1.657-48.468,2.134
			C131.077,288.335,124.705,288.429,116.341,288.429z"/>
		<path style="fill:#D3D0B1;" d="M97.133,296.029c-23.678,0-49.093-0.435-49.475-0.441l0.009-0.5c0.574,0.011,57.756,0.988,80.485,0
			c19.663-0.854,104.95-4.033,106.59-3.487l-0.158,0.475c-1.793-0.458-80.713,2.396-106.41,3.513
			C120.553,295.919,109.062,296.029,97.133,296.029z"/>
		<path style="fill:#D3D0B1;" d="M96.903,304.41c-23.053,0-45.844-0.316-46.244-0.322l0.007-0.5
			c0.705,0.011,70.706,0.983,89.477-0.499c7.128-0.563,21.149-0.776,35.993-1.002c24.918-0.38,53.16-0.81,58.431-2.98l0.19,0.463
			c-5.359,2.206-33.651,2.637-58.614,3.017c-14.836,0.227-28.85,0.439-35.962,1.001C132.069,304.228,114.41,304.41,96.903,304.41z"
			/>
		<path style="fill:#6A8185;" d="M194.162,301.838c0,0-18-23.5-16-24.5s34-4,33.5-1S196.162,301.838,194.162,301.838z"/>
		<path style="fill:#CA9661;" d="M167.162,318.838c0,0-18-23.5-16-24.5s34-4,33.5-1S169.162,318.838,167.162,318.838z"/>
		<path style="fill:#B94D59;" d="M99.662,266.338c0,0,6,61,6,64.5s7-16,7-16s6.02,16.087,7.875,15.331
			c1.854-0.756,5.125-61.331,2.125-63.331S99.662,266.338,99.662,266.338z"/>
	</g>
	<g>
		<path style="fill:#CA9661;" d="M442.487,180.305c0,0,23.271,173.338,25.809,180.727c2.538,7.39,3.691,36.205-13.685,36.749
			c-4.054,0.127-38.022,14.286-42.834-11.96c-2.057-11.219-30.441-201.69-30.939-206.022s51.197-10.388,54.222-8.542
			S440.566,173.393,442.487,180.305z"/>
		<path style="fill:#C37E59;" d="M405.448,349.195c0,0,54.031-10.675,57.995-8.979c3.964,1.696,5.94,25.95,7.017,35.597
			s-5.095,22.076-21.364,24.367c-16.269,2.29-36.3,5.059-38.839-17.597C408.358,365.646,405.448,349.195,405.448,349.195z"/>
		<path style="fill:#FEFADA;" d="M390.507,178.641c0,0,28.687,205.517,33.197,209.059c4.51,3.542,33.778-1.543,34.298-5.78
			c1.06-8.627-27.324-206.122-30.503-209.603S388.146,171.86,390.507,178.641z"/>
		<path style="fill:#D3D0B1;" d="M431.888,389.877c-4.921-6.3-36.121-206.387-37.448-214.901l0.494-0.077
			c0.325,2.084,32.505,208.473,37.347,214.67L431.888,389.877z"/>
		<path style="fill:#D3D0B1;" d="M444.282,384.226c-0.248-1.904-24.812-190.627-28.988-212.333l0.491-0.095
			c4.18,21.722,28.745,210.459,28.993,212.363L444.282,384.226z"/>
		<path style="fill:#D3D0B1;" d="M452.483,387.168l-0.499-0.023c0.507-11.149-24.479-212.763-24.731-214.799l0.495-0.062
			C428,174.321,452.992,375.978,452.483,387.168z"/>
		<path style="fill:#D3D0B1;" d="M440.877,386.729c-0.365-1.962-36.53-196.424-35.668-215.354l0.499,0.023
			c-0.859,18.873,35.295,213.278,35.66,215.24L440.877,386.729z"/>
	</g>
	<g>
		<path style="fill:#6E6C7B;" d="M387.432,186.805c0,0,1.063,174.889,2.642,182.542c1.579,7.652-0.938,36.381-18.242,34.713
			c-4.037-0.389-39.529,9.34-40.968-17.304c-0.615-11.39-4.573-203.923-4.517-208.284s52.102-3.801,54.868-1.585
			C383.981,179.104,386.406,179.705,387.432,186.805z"/>
		<path style="fill:#57495B;" d="M329.24,349.621c0,0,54.949-3.725,58.665-1.539c3.716,2.186,1.215,25.312,1.058,35.018
			s-6.478,22.433-22.906,22.638c-16.428,0.205-36.422,0.3-34.505-22.417C333.003,366.122,329.24,349.621,329.24,349.621z"/>
		<path style="fill:#FEFADA;" d="M336.086,178.551c0,0,2.347,207.496,6.371,211.582s33.7,2.76,34.755-1.376
			c2.147-8.423-0.919-207.923-3.629-211.78C370.871,173.12,334.605,171.525,336.086,178.551z"/>
		<path style="fill:#D3D0B1;" d="M350.298,393.333c-4.081-6.874-9.611-209.304-9.845-217.917l0.5-0.014
			c0.057,2.108,5.76,210.914,9.774,217.675L350.298,393.333z"/>
		<path style="fill:#D3D0B1;" d="M363.309,389.302c-0.004-1.92-0.395-192.234-1.78-214.296l0.499-0.031
			c1.387,22.076,1.777,212.405,1.781,214.325L363.309,389.302z"/>
		<path style="fill:#D3D0B1;" d="M371.069,393.262l-0.492-0.086c1.919-10.993,2.747-214.149,2.755-216.2l0.5,0.002
			C373.824,179.029,372.996,382.227,371.069,393.262z"/>
		<path style="fill:#D3D0B1;" d="M359.612,391.353c-0.112-1.993-11.281-199.473-8.021-218.141l0.492,0.086
			c-3.249,18.612,7.916,216.035,8.029,218.026L359.612,391.353z"/>
	</g>
	<g>
		<path style="fill:#493558;" d="M327.865,182.402c0,0,1.523,181.525,3.437,189.127s3.278,25.637-0.306,27.874
			c-3.584,2.237-62.353,10.759-66.103-0.085s-5.166-219.085-5.245-223.445s60.353-2.613,63.352-0.48
			C326,177.526,326.552,175.336,327.865,182.402z"/>
		<path style="fill:#B94D59;" d="M259.52,189.338c0,0,60.747,0,65.691,0c0,0,0.706,8.795,0,8.795s-62.513,0.733-64.632,0.244
			C258.461,197.889,259.52,189.338,259.52,189.338z"/>
		<path style="fill:#B94D59;" d="M259.52,205.026c0,0,60.747,0,65.691,0c0,0,0.706,8.795,0,8.795s-62.513,0.733-64.632,0.244
			C258.461,213.577,259.52,205.026,259.52,205.026z"/>
		<path style="fill:#B94D59;" d="M278.606,231.077c0,0,30.72,0,33.22,0c0,0,1.028,121.261,0.671,121.261
			c-0.357,0-32.283,3.772-33.355-2.64C278.071,343.286,278.606,231.077,278.606,231.077z"/>
	</g>
	<g>
		<path style="fill:#E7BD9F;" d="M241.941,116.112c0,0,4.949,9.775,17.335,18.025s26.886-9.013,26.886-9.013
			S247.221,112.337,241.941,116.112z"/>
		<path style="fill:#E7BD9F;" d="M327.114,67.482c0,0-3.095,11.643-1.864,15.603c1.231,3.96,15.813,5.033,20.586,10.86
			c4.772,5.827-8.723,58.682-8.808,62.353c-0.085,3.671-51.586-2.994-57.95-6.068c-6.363-3.074,10.939-56.472,17.08-61.245
			c6.14-4.772,12.161-0.316,15.144-5.901c2.983-5.585,1.703-11.683,1.703-11.683L327.114,67.482z"/>
		<g>
			<path style="fill:#E7BD9F;" d="M334.906,55.341c0,0-5.642,24.865-17.974,20.736c-8.483-2.84-7.473-18.754-2.786-24.638
				C318.832,45.555,331.837,48.245,334.906,55.341z"/>
			
				<ellipse transform="matrix(0.3169 -0.9484 0.9484 0.3169 158.6996 343.0228)" style="fill:#34263B;" cx="317.495" cy="61.333" rx="1.022" ry="0.792"/>
			
				<ellipse transform="matrix(0.3169 -0.9484 0.9484 0.3169 161.5736 352.2592)" style="fill:#34263B;" cx="325.345" cy="63.956" rx="1.022" ry="0.792"/>
			<path style="fill:#E7BD9F;" d="M329.986,66.576c0,0,2.778-3.633,3.992-1.234c1.214,2.399-2.463,6.646-4.199,6.036
				C328.043,70.769,328.599,67.974,329.986,66.576z"/>
			<path style="fill:#34263B;" d="M326.152,59.757c0,0,1.966,0.024,2.339,2.475C328.709,63.663,323.987,59.625,326.152,59.757z"/>
			<path style="fill:#34263B;" d="M319.563,57.377c0,0-1.378-1.403-3.405,0.024C314.974,58.233,321.157,58.848,319.563,57.377z"/>
			<path style="fill:#E7BD9F;" d="M312.148,60.795c0,0-0.012-4.573-2.431-3.398c-2.419,1.175-2.062,6.781-0.311,7.346
				C311.157,65.308,312.406,62.747,312.148,60.795z"/>
			<path style="fill:#323044;" d="M318.383,47.13c0,0-2.345,9.714-7.09,11.84C311.293,58.97,303.154,47.656,318.383,47.13z"/>
			<path style="fill:#323044;" d="M332.885,51.976c0,0-3.966,9.173-1.452,13.724C331.433,65.7,344.738,61.552,332.885,51.976z"/>
			<path style="fill:#323044;" d="M335.919,53.967c0,0,3.301-6.834-1.49-10.765s-15.319,1.672-15.909-2.646
				c-0.373-2.73-3.506,4.304,1.015,5.88c0,0-4.529-3.958-4.723-3.087C312.93,51.782,330.863,60.503,335.919,53.967z"/>
			<path style="fill:#493558;" d="M323.392,51.255c-0.198-0.066-0.4-0.136-0.605-0.21c-3.577-1.297-4.819-2.725-5.231-3.694
				c-0.386-0.909-0.116-1.537-0.105-1.564l0.311,0.139l-0.155-0.069l0.156,0.068c-0.009,0.021-0.222,0.536,0.113,1.31
				c0.392,0.902,1.581,2.241,5.028,3.491c2.792,1.014,4.958,1.237,6.541,1.4c2.048,0.212,3.283,0.34,3.526,2.064l-0.336,0.047
				c-0.207-1.46-1.153-1.559-3.224-1.773C327.925,52.31,325.93,52.104,323.392,51.255z"/>
			<path style="fill:#493558;" d="M334.522,52.578c0-0.029-0.033-2.838-4.573-4.96c-1.905-0.888-3.405-0.571-4.613-0.315
				c-0.903,0.19-1.684,0.354-2.329-0.071c-0.635-0.419-1.067-1.36-1.402-3.049l0.333-0.067c0.312,1.572,0.711,2.471,1.256,2.831
				c0.525,0.348,1.209,0.205,2.072,0.022c1.256-0.265,2.823-0.595,4.826,0.34c4.756,2.222,4.771,5.148,4.77,5.271L334.522,52.578z"
				/>
			<path style="fill:#C87D79;" d="M319.765,68.296c-0.491-0.17-1.458-1.642-1.418-2.946l0.5,0.016
				c-0.031,0.995,0.633,2.047,0.962,2.367c0.314-0.614,1.063-3.081,1.67-5.343l0.482,0.129c-0.977,3.647-1.638,5.584-1.964,5.757
				L319.765,68.296z"/>
			<path style="fill:#C87D79;" d="M319.349,71.054c-0.198,0-0.393-0.023-0.585-0.071c-2.151-0.532-3.016-3.85-3.051-3.99
				l0.484-0.123c0.008,0.032,0.826,3.169,2.688,3.628c1.037,0.256,2.235-0.365,3.566-1.844l0.371,0.334
				C321.587,70.361,320.421,71.054,319.349,71.054z"/>
			<path style="fill:#C87D79;" d="M310.494,63.403l-0.479-0.146c0.886-2.907-0.198-3.638-0.21-3.645l0.258-0.429
				C310.123,59.218,311.508,60.078,310.494,63.403z"/>
			<path style="fill:#C87D79;" d="M330.231,70.012l-0.471-0.171c1.189-3.269,2.813-3.119,2.882-3.113l-0.057,0.497l0.028-0.249
				l-0.024,0.249C332.593,67.234,331.274,67.145,330.231,70.012z"/>
		</g>
		<path style="fill:#44324E;" d="M348.129,235.803c0,0-5.143,14.479-2.555,20.073c2.588,5.594,8.921,8.406,12.421,7.833
			c3.5-0.573-4.422-8.643-5.167-13.917c-0.745-5.274,2.333-13.99,2.333-13.99H348.129z"/>
		<path style="fill:#44324E;" d="M334.819,236.93c0,0-5.143,14.479-2.555,20.073s8.921,8.406,12.421,7.833
			c3.5-0.573-4.422-8.643-5.167-13.917s2.333-13.99,2.333-13.99H334.819z"/>
		<path style="fill:#CA9661;" d="M301.953,170.539c0,0,7.036-19.227,26.313-14.682c19.277,4.545,25.407,82.342,15.512,89.147
			c-3.878,2.667-17.369,0.641-17.617-2.868C323.495,204.349,300.626,186.454,301.953,170.539z"/>
		<path style="fill:#CA9661;" d="M319.67,156.745c0,0,31.436-4.493,45.492,9.46c14.056,13.953,4.185,74.106-7.833,79.408
			c-4.534,2-12.483-1.143-12.483-1.143C341.877,240.441,310.218,169.617,319.67,156.745z"/>
		<path style="fill:#A36E4C;" d="M345.081,244.555l-0.471-0.171c2.25-6.177,8.39-47.142,3.518-70.039
			c-2.554-11.999-6.417-16.198-9.209-17.608c-2.589-1.308-4.62-0.415-4.641-0.405l-0.208-0.455c0.091-0.042,2.252-1.003,5.057,0.405
			c2.896,1.454,6.892,5.749,9.489,17.959C353.507,197.223,347.339,238.352,345.081,244.555z"/>
		<path style="fill:#CA9661;" d="M315.955,174.519c0,0-32.714,1.462-38.166-2.935c-9.373-7.559,1.289-21.353,1.289-21.353
			l49.189,5.626C328.267,155.857,327.688,174.342,315.955,174.519z"/>
		<path style="fill:#B94D59;" d="M307.992,85.279c0,0,0.105,8.857,10.322,9.788c8.92,0.813,8.106-10.28,14.3-7.795
			s10.605,0.813,14.243,10.339c3.638,9.526-1.721,61.051-4.673,60.755c-2.951-0.296-33.468-3.963-44.319,3.159
			c-9.037,5.931-25.958,10.989-24.54,3.419s5.03-63.969,10.209-72.063C286.837,87.72,305.408,85.518,307.992,85.279z"/>
		<path style="fill:#CA9661;" d="M232.405,108.053c0,0,57.178-7.489,59.394-1.874c2.216,5.615,2.463,17.852,0,18.752
			c-2.463,0.9-56.737,4.583-58.609,1.806C231.319,123.959,232.405,108.053,232.405,108.053z"/>
		<path style="fill:#C87D79;" d="M230.842,91.236l60.982-0.079c1.735,5.868,2.297,16.605-0.321,16.758
			c-17.076,0.999-37.309,2.014-49.562,1.991c-6.766-0.012-11.099-0.341-11.122-1.163C230.725,105.343,230.842,91.236,230.842,91.236
			z"/>
		<path style="fill:#493558;" d="M229.47,73.133c0,0,61.07-4.947,62.812,0.833s1.076,16.312-1.453,17.004
			c-2.529,0.692-43.833,0.167-60.009,0.545C227.471,91.594,229.47,73.133,229.47,73.133z"/>
		<path style="fill:#E7BD9F;" d="M225.14,110.753c0,0-0.037-5.421,0.445-6.662c1.6-4.115,4.877-8.163,4.604-5.898
			c-0.274,2.265-0.986,5.25-0.986,5.25s2.236-4.692,2.894-4.296c0.659,0.396-0.022,5.969-0.022,5.969s1.001-5.069,2.385-3.636
			s-2.102,5.034-2.367,12.13C231.897,118.808,226.215,117.258,225.14,110.753z"/>
		<path style="fill:#A36E4C;" d="M303.97,175.93c-0.737,0-1.311-0.112-1.67-0.381c-0.259-0.194-0.4-0.459-0.421-0.788
			c-0.183-2.855,10.642-6.245,11.876-6.622l0.146,0.479c-3.251,0.993-11.657,4.026-11.524,6.111c0.012,0.181,0.083,0.314,0.224,0.42
			c0.957,0.717,4.47-0.065,7.865-0.821c2.678-0.596,5.444-1.213,7.369-1.213c0.027,0,0.055,0,0.082,0l-0.004,0.5
			c-0.026,0-0.053,0-0.079,0c-1.869,0-4.608,0.61-7.259,1.201C307.952,175.399,305.573,175.929,303.97,175.93z"/>
		<path style="fill:#A36E4C;" d="M328.942,243.835l-0.496-0.064c0.551-4.223,1.035-16.679-6.325-41.076
			c-4.533-15.026-10.185-27.789-13.743-31.038c-0.651-0.594-1.203-0.846-1.636-0.748c-6.101,1.367-22.562-2.138-23.261-2.288
			l0.105-0.489c0.169,0.037,17.05,3.633,23.046,2.289c0.603-0.134,1.305,0.156,2.082,0.867c3.618,3.303,9.328,16.158,13.885,31.262
			C325.061,210.709,330.606,231.063,328.942,243.835z"/>
		<path style="fill:#E7BD9F;" d="M337.801,102.253c0,0,10.611,8.568,13.694,16.688c3.082,8.12-16.387,28.802-24.722,29.822
			s-53.221-23.291-53.531-25.372s0.063-8.944,2.847-8.637c4.068,0.449,33.573,10.712,44.069,12.264
			C325.573,127.819,331.108,100.286,337.801,102.253z"/>
		<path style="fill:#B94D59;" d="M321.719,117.268c0,0,23.776,5.038,28.475,11.13c2.335,3.027,6.301-10.543,5.968-21.569
			c-0.333-11.026-20.305-20.545-23.548-19.557S321.719,117.268,321.719,117.268z"/>
		<path style="fill:#9B434C;" d="M327.986,113.042l-0.496-0.065c0.065-0.49,1.627-12.044,4.942-15.538
			c3.314-3.492,9.443-4.751,9.703-4.803l0.098,0.49c-0.062,0.012-6.234,1.281-9.438,4.656
			C329.591,101.16,328.002,112.924,327.986,113.042z"/>
		<path style="fill:#9B434C;" d="M277.979,162.578l-0.469-0.172c0.124-0.341,3.287-8.376,23.576-9.441
			c10.602-0.558,19.278-0.051,26.248,0.355c6.342,0.37,10.923,0.636,13.764-0.106l0.127,0.483c-2.918,0.763-7.533,0.494-13.92,0.122
			c-6.957-0.405-15.615-0.909-26.193-0.355C281.203,154.509,278.01,162.498,277.979,162.578z"/>
		<path style="fill:#9B434C;" d="M319.225,100.741c-5.682,0-14.394-11.706-14.764-12.206l0.402-0.297
			c0.089,0.121,8.931,12.003,14.359,12.003c0.023,0,0.046,0,0.068,0c3.578-0.066,7.59-5.365,10.244-8.872
			c1.757-2.319,2.568-3.341,3.126-3.228l-0.094,0.491c-0.341,0.011-1.559,1.619-2.633,3.038c-2.714,3.584-6.813,9-10.634,9.07
			C319.275,100.741,319.25,100.741,319.225,100.741z"/>
		<path style="fill:#9B434C;" d="M351.682,124.344c-0.15-0.103-15.274-10.257-25.469-8.175l-0.1-0.49
			c10.407-2.114,25.697,8.147,25.85,8.251L351.682,124.344z"/>
		<path style="fill:#C87D79;" d="M313.238,73.402c0,0,2.765,3.636,6.058,3.577c3.293-0.059,6.397-3.03,6.397-3.03
			s-0.395,2.171-0.411,3.053c-0.016,0.882-4.365,4.305-9.125,4.296c-1.978-0.004-3.129-3.62-3.035-4.124
			C313.217,76.67,313.603,74.654,313.238,73.402z"/>
		<path style="fill:#FEFADA;" d="M227.808,77.35c0,0,54.669-2.12,56.777,0c2.109,2.12,2.109,9.083,0,9.851
			c-2.109,0.768-56.129,1.094-56.777,1.181C227.16,88.47,226.555,77.397,227.808,77.35z"/>
		<path style="fill:#FEFADA;" d="M237.497,95.313c0,0,53.234-1.9,55.287,0s2.054,8.143,0,8.831
			c-2.054,0.689-54.655,0.981-55.287,1.059C236.865,105.281,236.277,95.355,237.497,95.313z"/>
		<path style="fill:#493558;" d="M240.903,127.755l-0.626-17.842c0,0-2.939-0.572-3.6,0s-0.655,17.581,0,17.636
			S239.075,127.756,240.903,127.755z"/>
		<path style="fill:#493558;" d="M248.329,127.755l-0.626-17.842c0,0-2.939-0.572-3.6,0s-0.655,17.581,0,17.636
			S246.502,127.756,248.329,127.755z"/>
		<path style="fill:#493558;" d="M280.798,125.755l-0.398-17.849c0,0-2.932-0.61-3.599-0.046
			c-0.667,0.564-0.879,17.571-0.225,17.635S278.971,125.732,280.798,125.755z"/>
		<path style="fill:#493558;" d="M288.225,125.85l-0.398-17.849c0,0-2.932-0.61-3.599-0.046c-0.667,0.564-0.879,17.571-0.225,17.635
			S286.397,125.827,288.225,125.85z"/>
		<path style="fill:#E7BD9F;" d="M289.974,118.707c0,0-13.111-4.378-17.461-5.131s-9.978-0.81-7.914,0.163
			c2.064,0.973,4.971,1.957,4.971,1.957s-5.162-0.602-5.177,0.167c-0.015,0.768,5.067,3.155,5.067,3.155s-5.886-2.26-5.408-0.326
			s11.585,6.476,15.456,9.063C283.832,130.645,294.98,121.804,289.974,118.707z"/>
		<path style="fill:#FEFADA;" d="M338.503,253.976c-1.996,0-4.246-0.561-4.39-0.597l0.123-0.484c1.43,0.362,5.397,1.076,6.567,0.054
			l0.328,0.377C340.571,253.814,339.573,253.976,338.503,253.976z"/>
		<path style="fill:#FEFADA;" d="M339.447,256.604c-1.466,0-2.89-0.46-2.979-0.49l0.156-0.475c0.033,0.011,3.168,1.022,4.724,0.026
			l0.27,0.422C341.009,256.476,340.223,256.604,339.447,256.604z"/>
		<path style="fill:#FEFADA;" d="M352.539,252.96c-1.996,0-4.246-0.561-4.39-0.597l0.123-0.484c1.43,0.362,5.398,1.076,6.567,0.054
			l0.328,0.377C354.607,252.799,353.609,252.96,352.539,252.96z"/>
		<path style="fill:#FEFADA;" d="M353.483,255.588c-1.466,0-2.89-0.46-2.979-0.49l0.156-0.475c0.032,0.011,3.167,1.024,4.724,0.026
			l0.27,0.422C355.045,255.46,354.259,255.588,353.483,255.588z"/>
		<path style="fill:#A36E4C;" d="M361.339,241.066c-0.437-0.017-10.726-0.443-14.152-2.535l0.26-0.427
			c3.317,2.025,13.807,2.458,13.912,2.461L361.339,241.066z"/>
		<path style="fill:#A36E4C;" d="M339.229,238.38c-4.942,0-11.558-0.136-13.461-0.178l0.012-0.5
			c7.236,0.158,18.257,0.295,18.955,0.026l0.23,0.443C344.681,238.329,342.271,238.38,339.229,238.38z"/>
		<path style="fill:#D3D0B1;" d="M227.007,80.754l-0.023-0.499c0.146-0.007,14.583-0.667,21.178-0.667
			c4.7,0,20.675-0.165,30.22-0.264c3.961-0.041,6.77-0.07,7.113-0.07v0.5c-0.344,0-3.15,0.029-7.108,0.07
			c-9.546,0.099-25.522,0.264-30.225,0.264C241.578,80.088,227.152,80.748,227.007,80.754z"/>
		<path style="fill:#D3D0B1;" d="M247.375,85.868c-8.197,0-19.567-0.276-19.719-0.28l0.013-0.5
			c0.203,0.005,20.39,0.496,26.313,0.167c5.928-0.329,30.907-2.478,31.159-2.5l0.043,0.498c-0.252,0.022-25.239,2.171-31.175,2.5
			C252.517,85.837,250.124,85.868,247.375,85.868z"/>
		<path style="fill:#D3D0B1;" d="M251.584,99.715c-6.87,0-14.812-0.29-14.931-0.294l0.019-0.5c0.18,0.007,18.042,0.659,23.292,0.002
			c5.287-0.661,33.577-0.999,33.862-1.002l0.006,0.5c-0.285,0.003-28.547,0.34-33.806,0.998
			C258.25,99.642,255.053,99.715,251.584,99.715z"/>
		<path style="fill:#D3D0B1;" d="M237.497,103.088l-0.003-0.5c0.276-0.001,27.692-0.176,31.954-0.996
			c4.309-0.828,23.728-0.517,24.551-0.504l-0.008,0.5c-0.202-0.003-20.189-0.324-24.449,0.496
			C265.236,102.912,238.628,103.081,237.497,103.088z"/>
		<path style="fill:#B94D59;" d="M272.662,79.338c0,0,0.333,15.833,0.5,17.167c0.167,1.333,3.333-5.833,3.333-5.833l3.667,6.167
			l0.667-17.833C280.829,79.005,273.162,78.671,272.662,79.338z"/>
	</g>
	<g>
		<path style="fill:#B94D59;" d="M250.967,248.274c0,0-11.451-4.862-16.122,11.303c-4.671,16.165-4.474,22.81,2.889,25.123
			s8.747-3.716,14.501-1.453c5.754,2.263,15.905,3.268,17.553-3.687C271.436,272.605,266.47,240.701,250.967,248.274z"/>
		<path style="fill:#E7BD9F;" d="M258.862,258.024c0,0-2.586,24.455,1.559,28.105c4.145,3.65,20.921-1.894,25.382,5.139
			c4.461,7.032,3.128,59.251,3.128,59.251h-70.748c0,0,1.195-60.155,4.868-62.785c3.673-2.63,20.895,3.699,21.794-6.618
			c0.43-4.939,0.896-18.908,0.896-18.908L258.862,258.024z"/>
		<path style="fill:#C87D79;" d="M245.223,276.386c0,0,7.455,5.908,12.849-3.185c0,0-0.122,5.501,0.055,6.376
			c0.177,0.875-5.296,5.621-6.147,5.621c-2.262,0-6.942-5.373-6.942-5.373L245.223,276.386z"/>
		<path style="fill:#7F6873;" d="M238.823,287.167c0,0,4.276,14.473,11.982,15.598c7.706,1.125,9.596-16.1,11.8-15.598
			c2.203,0.502,14.152-5.449,19.502,3.047c5.35,8.495,4.883,75.015,4.883,75.015h-68.807c0,0,1.325-62.64,3.097-69.934
			C223.051,288,234.802,286.194,238.823,287.167z"/>
		<path style="fill:#E7BD9F;" d="M261.736,255.584c0,0,1.138,25.471-11.846,24.753c-8.932-0.494-12.169-16.108-9.206-23.023
			C243.646,250.4,256.899,249.553,261.736,255.584z"/>
		
			<ellipse transform="matrix(0.0547 -0.9985 0.9985 0.0547 -34.9576 498.9922)" style="fill:#44324E;" cx="246.049" cy="267.958" rx="1.022" ry="0.792"/>
		
			<ellipse transform="matrix(0.0547 -0.9985 0.9985 0.0547 -26.7088 507.7049)" style="fill:#44324E;" cx="254.775" cy="267.958" rx="1.022" ry="0.792"/>
		<path style="fill:#E7BD9F;" d="M259.965,267.721c0,0,1.717-4.239,3.523-2.246s-0.616,7.061-2.452,6.932
			S258.997,269.436,259.965,267.721z"/>
		<path style="fill:#B94D59;" d="M254.463,262.159c0,0,1.903-0.497,2.911,1.768C257.962,265.249,252.34,262.604,254.463,262.159z"/>
		<path style="fill:#B94D59;" d="M247.237,262.437c0,0-1.7-0.988-3.278,0.924C243.038,264.478,249.163,263.435,247.237,262.437z"/>
		<path style="fill:#E7BD9F;" d="M241.233,266.865c0,0-1.222-4.407-3.244-2.634c-2.022,1.773-0.194,7.085,1.644,7.167
			C241.472,271.48,241.998,268.68,241.233,266.865z"/>
		<path style="fill:#C87D79;" d="M251.031,272.38l-0.1-0.004c-0.474-0.019-1.732-0.066-2.047-1.368l0.486-0.117
			c0.192,0.799,0.867,0.951,1.52,0.983c0.089-0.678-0.091-3.605-0.334-6.266l0.498-0.045c0.385,4.206,0.452,6.471,0.198,6.73
			L251.031,272.38z"/>
		<path style="fill:#C87D79;" d="M250.247,274.94c-2.186,0-3.865-2.915-3.937-3.041l0.436-0.246
			c0.016,0.027,1.606,2.787,3.501,2.787c0.017,0,0.033,0,0.051-0.001c1.066-0.027,2.06-0.943,2.951-2.723l0.447,0.225
			c-0.981,1.957-2.121,2.966-3.387,2.998C250.289,274.94,250.267,274.94,250.247,274.94z"/>
		<path style="fill:#C87D79;" d="M240.328,269.818l-0.5-0.014c0.085-3.038-1.154-3.456-1.167-3.46l0.134-0.481
			C238.862,265.881,240.426,266.343,240.328,269.818z"/>
		<path style="fill:#C87D79;" d="M261.11,270.97l-0.498-0.041c0.282-3.465,1.887-3.754,1.955-3.765l0.081,0.493
			C262.635,267.66,261.357,267.94,261.11,270.97z"/>
		<path style="fill:#B94D59;" d="M237.845,263.013c0,0,1.292,1.677,4.375,0.19c7.78-3.752,9.375-12.252,9.375-12.252
			s0.754,5.875,1.877,7.875c1.123,2,6.595,5.809,7.859,5.467c1.264-0.342,4.613-7.651-1.936-12.747
			c-6.55-5.095-8.213-3.112-12.069-1.541C243.47,251.576,234.72,257.699,237.845,263.013z"/>
		<circle style="fill:#B94D59;" cx="252.097" cy="243.535" r="7.297"/>
		<path style="fill:#FEFADA;" d="M250.805,302.974c0,0-6.484-17.505-10.723-15.252s-7.687,14.999-4.211,17.252
			C239.348,307.227,250.805,302.974,250.805,302.974z"/>
		<path style="fill:#FEFADA;" d="M252.096,302.974c0,0,6.484-17.505,10.723-15.252s7.687,14.999,4.211,17.252
			C263.553,307.227,252.096,302.974,252.096,302.974z"/>
		<path style="fill:#CA9661;" d="M267.03,286.298c0,0-1.866,57.852,1.427,64.221c3.293,6.37,18.89,3.633,20.661-1.379
			c1.771-5.011-0.92-50.881-2.117-54.377C285.803,291.268,281.74,283.274,267.03,286.298z"/>
		<path style="fill:#CA9661;" d="M239.026,286.298c0,0,1.866,57.852-1.427,64.221c-3.293,6.37-18.89,3.633-20.661-1.379
			c-1.771-5.011,0.92-50.881,2.117-54.377C220.253,291.268,224.316,283.274,239.026,286.298z"/>
		<path style="fill:#6A8185;" d="M182.034,372.781c0,0-8.569-38.623,15.761-39.334s77.384,43.319,60.337,59.157
			C241.084,408.442,183.224,402.942,182.034,372.781z"/>
		<path style="fill:#6A8185;" d="M325.93,372.781c0,0,4.793-38.713-19.537-39.423s-83.358,43.409-66.31,59.247
			S324.74,402.942,325.93,372.781z"/>
		<path style="fill:#FEFADA;" d="M81.041,399.916h175.925c0,0-16.844-59.45-68.311-59.043s-72.99,48.17-111.357,21.869
			C77.298,362.743,67.005,387.433,81.041,399.916z"/>
		<path style="fill:#FEFADA;" d="M418.959,399.916H243.034c0,0,16.844-59.45,68.311-59.043s72.99,48.17,111.357,21.869
			C422.702,362.743,432.995,387.433,418.959,399.916z"/>
		<path style="fill:#DC9A8E;" d="M234.969,286.862c0,0-0.012-6.603-1.329-10.817c-1.317-4.214-2.109-9.786-0.874-7.867
			c1.234,1.919,2.591,4.672,2.591,4.672s-1.272-5.039-0.513-5.155c0.76-0.116,3.791,4.611,3.791,4.611s-2.464-4.542-0.484-4.321
			c1.98,0.221,11.738,12.353,6.236,23.486C242.083,296.133,238.694,291.421,234.969,286.862z"/>
		<path style="fill:#CA9661;" d="M234.445,283.754c0,0,9.489,1.079,12.305,6.183c2.816,5.103-22.107,53.848-33.506,54.134
			s-17.316-8.713-19.108-10.713S224.545,279.651,234.445,283.754z"/>
		<path style="fill:#DC9A8E;" d="M266.084,286.862c0,0,0.012-6.603,1.329-10.817c1.317-4.214,2.109-9.786,0.874-7.867
			c-1.234,1.919-2.591,4.672-2.591,4.672s1.272-5.039,0.513-5.155c-0.76-0.116-3.792,4.611-3.792,4.611s2.464-4.542,0.484-4.321
			c-1.98,0.221-11.652,14.457-6.236,23.486C259.341,295.93,262.359,291.421,266.084,286.862z"/>
		<path style="fill:#CA9661;" d="M266.084,283.754c0,0-9.489,1.079-12.305,6.183c-2.816,5.103,22.107,53.848,33.506,54.134
			s17.316-8.713,19.108-10.713C308.184,331.358,275.984,279.651,266.084,283.754z"/>
		<path style="fill:#CA9661;" d="M231.578,286.298c0,0-4.723,40.78-8.016,47.15c-3.293,6.37-27.655,4.921-29.426-0.09
			c-1.771-5.011,16.273-35.099,17.471-38.594C212.805,291.268,216.868,283.274,231.578,286.298z"/>
		<path style="fill:#CA9661;" d="M272.885,286.298c0,0,4.723,40.78,8.016,47.15c3.293,6.37,23.721,4.921,25.492-0.09
			c1.771-5.011-15.48-34.817-16.677-38.312S286.095,283.522,272.885,286.298z"/>
		<path style="fill:#A36E4C;" d="M299.864,322.648c-7.817-18.813-22.609-35.117-27.033-36.106l0.109-0.488
			c5.092,1.139,19.998,18.624,27.385,36.403L299.864,322.648z"/>
		<path style="fill:#A36E4C;" d="M276.395,336.05c-0.083-0.14-8.322-14.004-10.077-15.953l0.371-0.334
			c1.788,1.985,9.796,15.459,10.136,16.031L276.395,336.05z"/>
		<path style="fill:#C87D79;" d="M233.757,273.468l-0.175-0.469c0.182-0.068,4.476-1.647,6.145-0.813l-0.225,0.447
			C238.278,272.019,234.94,273.026,233.757,273.468z"/>
		<path style="fill:#A36E4C;" d="M245.192,297.739c-2.618-4.115-18.78-10.855-18.943-10.924l0.191-0.461
			c0.671,0.278,16.471,6.869,19.173,11.117L245.192,297.739z"/>
		<path style="fill:#A36E4C;" d="M199.73,322.218l-0.46-0.197c4.124-9.642,22.7-30.641,22.887-30.852l0.374,0.332
			C222.345,291.711,203.823,312.65,199.73,322.218z"/>
		<path style="fill:#A36E4C;" d="M222.531,337.855l-0.373-0.332c0.14-0.157,14.006-15.778,16.329-25.92l0.487,0.111
			C236.623,321.982,222.672,337.698,222.531,337.855z"/>
		<rect x="81.041" y="399.916" style="fill:#C87D79;" width="340.581" height="17.835"/>
		<path style="fill:#A36E4C;" d="M210.09,342.584c-4.993,0-11.03-1.802-14.344-9.381c-0.086-0.197,0.002-0.329,0.044-0.377
			c0.251-0.282,0.884-0.111,3.531,0.669c4.645,1.369,13.29,3.918,23.024,3.944l-0.001,0.5c-9.806-0.026-18.496-2.589-23.164-3.965
			c-1.284-0.379-2.419-0.713-2.887-0.772c6.152,13.672,21.639,7.502,21.795,7.438l0.189,0.463
			C218.202,341.135,214.565,342.584,210.09,342.584z"/>
		<path style="fill:#A36E4C;" d="M255.164,296.365l-0.252-0.432c0.537-0.315,13.225-7.701,17.999-7.241l-0.051,0.498
			C268.267,288.733,255.294,296.289,255.164,296.365z"/>
		<path style="fill:#A36E4C;" d="M288.108,339.229c-4.608,0-8.111-1.311-8.187-1.34l0.18-0.467
			c0.16,0.062,16.032,5.988,24.515-7.922l0.428,0.26C300.358,337.445,293.482,339.229,288.108,339.229z"/>
		<path style="fill:#FEFADA;" d="M245.953,271.199c-1.973,0-3.578-1.605-3.578-3.578s1.605-3.578,3.578-3.578
			s3.578,1.605,3.578,3.578S247.925,271.199,245.953,271.199z M245.953,264.543c-1.697,0-3.078,1.381-3.078,3.078
			s1.381,3.078,3.078,3.078c1.697,0,3.078-1.381,3.078-3.078S247.65,264.543,245.953,264.543z"/>
		<path style="fill:#FEFADA;" d="M255.038,271.199c-1.973,0-3.578-1.605-3.578-3.578s1.605-3.578,3.578-3.578
			s3.577,1.605,3.577,3.578S257.01,271.199,255.038,271.199z M255.038,264.543c-1.697,0-3.078,1.381-3.078,3.078
			s1.381,3.078,3.078,3.078c1.696,0,3.077-1.381,3.077-3.078S256.734,264.543,255.038,264.543z"/>
		<rect x="249.127" y="266.968" style="fill:#FEFADA;" width="2.969" height="0.5"/>
		
			<rect x="241.028" y="263.156" transform="matrix(0.5503 -0.835 0.835 0.5503 -112.8803 320.6856)" style="fill:#FEFADA;" width="0.501" height="3.964"/>
		<polygon style="fill:#FEFADA;" points="258.454,266.463 258.276,265.996 261.644,264.709 261.822,265.176 		"/>
		<path style="fill:#D3D0B1;" d="M246.616,400.021c-13.484-29.083-25.931-42.696-41.619-45.519
			c-15.069-2.713-32.445,4.495-56.496,14.464c-5.782,2.396-11.761,4.875-18.231,7.435c-25.009,9.894-41.831,11.487-49.997,4.735
			c-6.321-5.228-4.786-13.749-4.77-13.835l0.491,0.094c-0.016,0.082-1.493,8.324,4.602,13.359c5.511,4.553,18.57,7.412,49.49-4.818
			c6.465-2.558,12.443-5.035,18.223-7.432c24.131-10.002,41.566-17.228,56.776-14.493c15.867,2.854,28.423,16.551,41.983,45.799
			L246.616,400.021z"/>
		<path style="fill:#D3D0B1;" d="M238.531,400.651c-0.198-0.263-20.183-26.271-52.333-23.603c-10.825,0.896-24.826,4.842-39.65,9.02
			c-30.136,8.494-61.297,17.275-72.281,2.635l0.4-0.301c10.777,14.369,41.771,5.634,71.745-2.815
			c14.848-4.185,28.872-8.137,39.745-9.036c32.436-2.689,52.574,23.535,52.773,23.8L238.531,400.651z"/>
		<path style="fill:#D3D0B1;" d="M144.264,400.15l-0.173-0.469c16.188-5.976,39.463-12.188,58.395-7.854
			c11.37,2.604,15.71,7.712,15.889,7.929l-0.385,0.319c-0.043-0.053-4.443-5.216-15.671-7.773
			C191.94,389.939,173.441,389.38,144.264,400.15z"/>
		<path style="fill:#D3D0B1;" d="M253.699,400.021l-0.453-0.211c13.561-29.248,26.116-42.945,41.984-45.799
			c15.204-2.739,32.646,4.49,56.775,14.493c5.78,2.396,11.758,4.874,18.223,7.432c17.066,6.752,39.505,13.067,49.491,4.818
			c6.094-5.035,4.616-13.277,4.601-13.359l0.492-0.094c0.016,0.086,1.551,8.607-4.771,13.835
			c-8.165,6.753-24.988,5.158-49.997-4.735c-6.47-2.56-12.448-5.037-18.23-7.435c-24.052-9.97-41.432-17.173-56.496-14.464
			C279.63,357.325,267.183,370.938,253.699,400.021z"/>
		<path style="fill:#D3D0B1;" d="M261.783,400.651l-0.398-0.301c0.199-0.265,20.339-26.486,52.772-23.8
			c10.873,0.899,24.897,4.852,39.745,9.037c29.974,8.447,60.969,17.184,71.744,2.814l0.4,0.301
			c-10.984,14.642-42.145,5.859-72.28-2.635c-14.824-4.178-28.825-8.124-39.65-9.02C281.96,374.393,261.981,400.389,261.783,400.651
			z"/>
		<path style="fill:#D3D0B1;" d="M356.049,400.15c-16.125-5.952-39.296-12.144-58.109-7.835c-11.206,2.566-15.573,7.708-15.616,7.76
			l-0.385-0.318c0.179-0.217,4.52-5.325,15.89-7.929c10.448-2.391,29.064-2.974,58.395,7.854L356.049,400.15z"/>
		<path style="fill:#B94D59;" d="M241.32,263.827l-0.084-0.492c0.442-0.076,10.815-1.975,10.1-13.234l0.498-0.031
			c0.39,6.119-2.492,9.536-4.979,11.326C244.169,263.328,241.435,263.808,241.32,263.827z"/>
		<path style="fill:#B94D59;" d="M246.891,248.511c-1.657-0.55-2.628-1.446-2.886-2.661c-0.686-3.229,3.972-7.519,4.171-7.7
			l0.336,0.369c-0.046,0.042-4.645,4.277-4.019,7.227c0.219,1.029,1.079,1.799,2.556,2.29L246.891,248.511z"/>
		<path style="fill:#B94D59;" d="M256.395,249.71l-0.117-0.486c0.026-0.006,2.595-0.648,3.333-2.645
			c0.521-1.407,0.034-3.165-1.449-5.224l0.406-0.292c1.587,2.204,2.096,4.119,1.511,5.692
			C259.245,249.002,256.511,249.683,256.395,249.71z"/>
		<path style="fill:#B94D59;" d="M232.762,280.492c-0.032-0.049-3.215-4.878-2.193-10.724c0.527-3.015,1.789-4.46,2.803-5.62
			c1.097-1.256,1.889-2.163,1.232-4.505c-0.792-2.821,1.44-7.183,3.961-9.606c1.878-1.806,3.788-2.517,5.376-2.002l-0.154,0.476
			c-1.404-0.452-3.135,0.215-4.875,1.887c-2.772,2.664-4.488,6.751-3.826,9.11c0.73,2.603-0.182,3.646-1.337,4.968
			c-0.973,1.114-2.185,2.501-2.688,5.378c-0.986,5.643,2.085,10.313,2.116,10.358L232.762,280.492z"/>
		<path style="fill:#934048;" d="M242.99,260.828l-0.113-0.486c4.485-1.04,6.278-5.067,6.45-8.2c0.078-1.421-0.235-2.133-0.42-2.198
			c-0.067-0.021-0.196,0.059-0.359,0.287c-1.871,2.62-10.188,9.624-10.542,9.921l-0.321-0.383c0.086-0.072,8.621-7.26,10.457-9.829
			c0.374-0.523,0.71-0.544,0.932-0.467c0.652,0.229,0.816,1.543,0.753,2.697C249.644,255.475,247.745,259.726,242.99,260.828z"/>
		<path style="fill:#934048;" d="M251.54,246.518c-1.969-1.828-1.205-5.221-1.171-5.365l0.486,0.113
			c-0.007,0.032-0.73,3.256,1.024,4.885L251.54,246.518z"/>
		<path style="fill:#934048;" d="M252.895,246.604c-0.198,0-0.327-0.02-0.344-0.022l-0.352-0.057l0.173-0.312
			c1.584-2.86,2.15-6.26,2.155-6.294l0.494,0.08c-0.022,0.137-0.54,3.251-2.021,6.1c0.367-0.016,0.941-0.117,1.419-0.539
			c0.639-0.566,0.941-1.542,0.898-2.904l0.5-0.016c0.048,1.521-0.313,2.63-1.073,3.299
			C254.097,246.51,253.33,246.604,252.895,246.604z"/>
		<path style="fill:#934048;" d="M260.655,261.226c-0.228-0.332-5.569-8.178-6.802-11.042l0.459-0.197
			c1.214,2.82,6.7,10.877,6.755,10.958L260.655,261.226z"/>
		<path style="fill:#934048;" d="M264.469,265.962c-0.366-7.469-5.222-13.66-5.271-13.722l0.391-0.311
			c0.051,0.063,5.005,6.381,5.38,14.007L264.469,265.962z"/>
		<path style="fill:#B94D59;" d="M268.748,266.231c-0.05-6.035-1.748-9.646-3.163-11.611c-1.529-2.124-3.067-2.839-3.082-2.846
			l0.205-0.456c0.263,0.118,6.442,3.03,6.54,14.909L268.748,266.231z"/>
		<path style="fill:#C87D79;" d="M266.3,273.38c-1.126-1.562-5.172-0.738-5.213-0.729l-0.102-0.49
			c0.179-0.035,4.406-0.896,5.721,0.926L266.3,273.38z"/>
	</g>
</g>
</svg>
